<?xml version="1.0" encoding="UTF-8"?>
<svg id="Layer_2" data-name="Layer 2" xmlns="http://www.w3.org/2000/svg" viewBox="0 0 176.96 97.98">
  <defs>
    <style>
      .cls-1 {
        fill: #fff;
      }

      .cls-2 {
        fill: #ed5a11;
      }

      .cls-3 {
        fill: #252a25;
      }

      .cls-4 {
        fill: #3f444b;
      }
    </style>
  </defs>
  <g id="Layer_1-2" data-name="Layer 1">
    <g>
      <path class="cls-4" d="m63.92,50.72L42.19,13.08C15.82,29.24.8,57.17,0,86.14h43.48c.76-13.98,7.99-27.35,20.44-35.43Z"/>
      <path class="cls-2" d="m108.92,48.36l21.74-37.66c-25.5-13.79-57.19-14.75-84.37,0l21.73,37.63c13.22-6.74,28.42-6.32,40.9.01Z"/>
      <path class="cls-2" d="m127.51,65.98c3.68,6.37,5.62,13.28,5.97,20.17h43.48c-.37-14.27-4.2-28.65-11.84-41.88-7.64-13.23-18.18-23.74-30.35-31.2l-21.74,37.65c5.79,3.75,10.8,8.88,14.48,15.25Z"/>
      <path class="cls-1" d="m90.41,88.33c0,1.04-.84,1.88-1.88,1.88s-1.88-.84-1.88-1.88.84-1.88,1.88-1.88,1.88.84,1.88,1.88Z"/>
      <path class="cls-3" d="m109.3,14.97l-23.04,63.99c-4.23,1.02-7.38,4.83-7.38,9.37,0,5.33,4.32,9.64,9.64,9.64s9.64-4.32,9.64-9.64c0-2.65-1.07-5.05-2.8-6.8l13.94-66.57Zm-20.78,78.54c-2.86,0-5.17-2.32-5.17-5.17s2.32-5.17,5.17-5.17,5.17,2.32,5.17,5.17-2.32,5.17-5.17,5.17Z"/>
    </g>
  </g>
</svg>